<?xml version="1.0" encoding="UTF-8" standalone="no"?>
<!-- Generator: Adobe Illustrator 15.1.0, SVG Export Plug-In . SVG Version: 6.00 Build 0)  -->

<svg
   xmlns:dc="http://purl.org/dc/elements/1.1/"
   xmlns:cc="http://creativecommons.org/ns#"
   xmlns:rdf="http://www.w3.org/1999/02/22-rdf-syntax-ns#"
   xmlns:svg="http://www.w3.org/2000/svg"
   xmlns="http://www.w3.org/2000/svg"
   xmlns:xlink="http://www.w3.org/1999/xlink"
   xmlns:sodipodi="http://sodipodi.sourceforge.net/DTD/sodipodi-0.dtd"
   xmlns:inkscape="http://www.inkscape.org/namespaces/inkscape"
   version="1.1"
   id="Layer_1"
   x="0px"
   y="0px"
   width="128px"
   height="128px"
   viewBox="0 0 128 128"
   style="enable-background:new 0 0 128 128;"
   xml:space="preserve"
   inkscape:version="0.91 r13725"
   sodipodi:docname="Creative-Tail-People-asistante-skintone6.svg"><metadata
     id="metadata3437"><rdf:RDF><cc:Work
         rdf:about=""><dc:format>image/svg+xml</dc:format><dc:type
           rdf:resource="http://purl.org/dc/dcmitype/StillImage" /><dc:title /></cc:Work></rdf:RDF></metadata><defs
     id="defs3435"><defs
       id="defs3381"><circle
         r="64"
         cy="64"
         cx="64"
         id="SVGID_1_" /></defs><clipPath
       id="SVGID_2_"><use
         height="100%"
         width="100%"
         y="0"
         x="0"
         id="use3385"
         style="overflow:visible"
         xlink:href="#SVGID_1_" /></clipPath></defs><sodipodi:namedview
     pagecolor="#ffffff"
     bordercolor="#666666"
     borderopacity="1"
     objecttolerance="10"
     gridtolerance="10"
     guidetolerance="10"
     inkscape:pageopacity="0"
     inkscape:pageshadow="2"
     inkscape:window-width="1280"
     inkscape:window-height="960"
     id="namedview3433"
     showgrid="false"
     inkscape:zoom="2.6074563"
     inkscape:cx="-19.264785"
     inkscape:cy="8.2929149"
     inkscape:window-x="0"
     inkscape:window-y="27"
     inkscape:window-maximized="1"
     inkscape:current-layer="Layer_1" /><path
     style="fill:#f5f5f5;fill-opacity:1"
     d="M 77 95 L 76.662109 96.042969 C 78.045655 96.103762 79.378117 96.12899 80.841797 96.263672 C 82.749545 96.439215 84.706148 96.690668 86.662109 97.037109 C 84.892526 96.731366 83.125034 96.515334 81.388672 96.34375 C 81.999034 96.967356 82.646791 97.496528 83.201172 98.21875 C 84.292609 99.640625 85.243125 101.25256 85.919922 103.05078 C 86.25832 103.94989 86.527307 104.89499 86.712891 105.88672 C 86.898475 106.87845 87 107.91662 87 109 C 85 108 77 105 77 105 L 78 114 L 65.830078 127.9082 A 64 64 0 0 0 108.4082 110.07031 A 64 64 0 0 0 110.18164 108.18164 L 101 99 L 77 95 z M 47.316406 95.613281 L 27 99 L 17.839844 108.16016 A 64 64 0 0 0 19.193359 109.61719 A 64 64 0 0 0 62.1875 127.92773 L 50 114 L 51 105 C 51 105 43 108 41 109 C 41 107.91662 41.101525 106.87845 41.287109 105.88672 C 41.472693 104.89499 41.74168 103.94989 42.080078 103.05078 C 42.756875 101.25256 43.707391 99.640625 44.798828 98.21875 C 45.569033 97.215363 46.451055 96.425938 47.316406 95.613281 z "
     id="path3987" /><path
     style="fill:#45998b;fill-opacity:1"
     d="M 75.234375 95.96875 C 74.756337 95.954236 74.212262 95.898801 73.75 95.890625 C 69.332969 95.8125 65.684641 96 63.681641 96 C 61.678641 96 58.030313 95.8125 53.613281 95.890625 C 53.338307 95.895488 53.041313 95.910666 52.755859 95.919922 C 52.935463 96.773991 52.911117 96.985162 53.171875 98.078125 C 53.90625 101.15625 54.9375 105.0625 56.125 109.125 C 57.3125 113.1875 58.65625 117.40625 60.015625 121.10938 C 61.063822 123.9648 62.085585 126.0306 63.087891 127.96484 A 64 64 0 0 0 64 128 A 64 64 0 0 0 64.917969 127.95312 C 65.91872 126.02012 66.938004 123.95983 67.984375 121.10938 C 69.34375 117.40625 70.6875 113.1875 71.875 109.125 C 73.0625 105.0625 74.09375 101.15625 74.828125 98.078125 C 75.082975 97.009923 75.056907 96.809411 75.234375 95.96875 z "
     id="path3985" /><path
     style="fill:#ededed;fill-opacity:0.96200979"
     d="M 75.234375 95.96875 C 75.056907 96.809411 75.082975 97.009923 74.828125 98.078125 C 74.09375 101.15625 73.0625 105.0625 71.875 109.125 C 70.6875 113.1875 69.34375 117.40625 67.984375 121.10938 C 66.938004 123.95983 65.91872 126.02012 64.917969 127.95312 A 64 64 0 0 0 65.830078 127.9082 L 78 114 L 77 105 C 77 105 85 108 87 109 C 87 107.91662 86.898475 106.87845 86.712891 105.88672 C 86.527307 104.89499 86.25832 103.94989 85.919922 103.05078 C 85.243125 101.25256 84.292609 99.640625 83.201172 98.21875 C 82.646791 97.496528 81.999034 96.967356 81.388672 96.34375 C 81.208904 96.325986 81.020738 96.280137 80.841797 96.263672 C 78.878163 96.082986 77.040225 96.023579 75.234375 95.96875 z "
     id="path3682" /><path
     style="fill:#e6e6e6;fill-opacity:1"
     d="M 47.316406 95.613281 C 46.451055 96.425938 45.569033 97.215363 44.798828 98.21875 C 43.707391 99.640625 42.756875 101.25256 42.080078 103.05078 C 41.74168 103.94989 41.472693 104.89499 41.287109 105.88672 C 41.101525 106.87845 41 107.91662 41 109 C 43 108 51 105 51 105 L 50 114 L 62.1875 127.92773 A 64 64 0 0 0 63.087891 127.96484 C 62.085585 126.0306 61.063822 123.96481 60.015625 121.10938 C 58.65625 117.40625 57.3125 113.1875 56.125 109.125 C 54.9375 105.0625 53.90625 101.15625 53.171875 98.078125 C 52.911117 96.985162 52.935463 96.773991 52.755859 95.919922 C 52.276011 95.935482 51.800907 95.948022 51.314453 95.966797 L 51 95 L 47.316406 95.613281 z "
     id="path3673" /><path
     style="fill:#4ab8a1"
     d="M 64 0 A 64 64 0 0 0 0 64 A 64 64 0 0 0 17.839844 108.16016 L 27 99 L 51 95 L 51.328125 96.011719 C 52.075906 95.983446 52.901627 95.903212 53.613281 95.890625 C 58.030313 95.8125 61.678641 96 63.681641 96 C 65.684641 96 69.332969 95.8125 73.75 95.890625 C 74.65687 95.906665 75.698178 96.000613 76.662109 96.042969 L 77 95 L 101 99 L 110.18164 108.18164 A 64 64 0 0 0 128 64 A 64 64 0 0 0 64 0 z "
     id="circle3375" /><path
     style="fill:#272424;fill-opacity:1"
     d="M 107.912,68.19 C 102.422,78.63 88.25,89.067 64,89.067 39.75,89.067 25.578,78.629 20.088,68.19 c 0,0 9.573,-15.198 10.978,-20.876 C 35.248,30.484 45.817,16 64,16 c 18.191,0 28.754,14.484 32.934,31.314 1.414,5.678 10.978,20.876 10.978,20.876 z"
     id="path3395"
     inkscape:connector-curvature="0" /><ellipse
     style="fill:#f5f5f5"
     cx="63.952999"
     cy="96.5"
     rx="14"
     ry="5.5"
     id="ellipse3397" /><path
     style="fill:#544037;fill-opacity:1"
     d="m 76.371,93.563 0.005,0 -3.423,-10.646 -9,-0.666 -9,0.666 -3.423,10.646 0.005,0 c -0.051,0.146 -0.082,0.295 -0.082,0.443 0,2.206 5.597,3.993 12.5,3.993 6.902,0 12.5,-1.787 12.5,-3.993 0,-0.149 -0.031,-0.297 -0.082,-0.443 z"
     id="path3399"
     inkscape:connector-curvature="0" /><path
     style="fill:#3a2922;fill-opacity:1"
     d="m 76.371,93.563 0.005,0 -3.423,-10.646 -9,-0.666 -1.75,0.129 7.25,0.537 3.423,10.646 -0.005,0 c 0.051,0.146 0.082,0.295 0.082,0.443 0,2.016 -4.678,3.677 -10.75,3.95 0.573,0.025 1.154,0.043 1.75,0.043 6.902,0 12.5,-1.787 12.5,-3.993 0,-0.149 -0.031,-0.297 -0.082,-0.443 z"
     id="path3401"
     inkscape:connector-curvature="0" /><path
     style="fill:#604d41;fill-opacity:1"
     d="m 64,30.707 -22,0 0,27.494 c 0,15.184 9.849,27.494 22,27.494 12.15,0 22,-12.312 22,-27.494 l 0,-27.494 -22,0 z"
     id="path3407"
     inkscape:connector-curvature="0" /><path
     style="fill:#272424;fill-opacity:1"
     d="M 87.334,29.917 C 82.5,25.417 70.295,22.361 64,22.361 c -39.167,0 -22.979,36.184 -22.979,36.184 0,-24.352 37.727,-12.52 37.727,-25.895 0,2.517 8.169,4.933 8.169,10.933 2.36,-2.36 5.251,-9.166 0.417,-13.666 z"
     id="path3409"
     inkscape:connector-curvature="0" /><path
     style="fill:#131212;fill-opacity:1"
     d="M 96.934,47.314 C 92.754,30.484 82.191,16 64,16 c -0.938,0 -1.848,0.047 -2.744,0.122 16.514,1.385 26.227,15.229 30.191,31.192 1.414,5.678 10.977,20.876 10.977,20.876 -4.156,7.903 -13.331,15.769 -28.054,19.134 l 0.323,1.009 c 17.797,-2.548 28.592,-11.345 33.219,-20.143 0,0 -9.564,-15.198 -10.978,-20.876 z"
     id="path3411"
     inkscape:connector-curvature="0" /><path
     style="fill:#f5f5f5"
     d="m 64,14 c -13,0 -21,7 -21,7 l 3,10 c 0,1.761 8.059,4 18,4 9.941,0 18,-2.239 18,-4 l 3,-10 c 0,0 -8,-7 -21,-7 z"
     id="path3413"
     inkscape:connector-curvature="0" /><rect
     x="63"
     y="18"
     style="fill:#cc584c"
     width="2"
     height="10"
     id="rect3415" /><rect
     x="59"
     y="22"
     style="fill:#cc584c"
     width="10"
     height="2"
     id="rect3417" /><g
     id="g3419"><g
       id="g3421"><ellipse
         id="ellipse3423"
         ry="3"
         rx="4"
         cy="51"
         cx="54"
         style="fill:#f5f5f5" /><circle
         id="circle3425"
         r="2"
         cy="51"
         cx="54"
         style="fill:#242424" /></g><g
       id="g3427"><ellipse
         id="ellipse3429"
         ry="3"
         rx="4"
         cy="51"
         cx="72"
         style="fill:#f5f5f5" /><circle
         id="circle3431"
         r="2"
         cy="51"
         cx="72"
         style="fill:#242424" /></g></g></svg>