<?xml version="1.0" encoding="UTF-8" standalone="no"?>
<!-- Generator: Adobe Illustrator 15.1.0, SVG Export Plug-In . SVG Version: 6.00 Build 0)  -->

<svg
   xmlns:dc="http://purl.org/dc/elements/1.1/"
   xmlns:cc="http://creativecommons.org/ns#"
   xmlns:rdf="http://www.w3.org/1999/02/22-rdf-syntax-ns#"
   xmlns:svg="http://www.w3.org/2000/svg"
   xmlns="http://www.w3.org/2000/svg"
   xmlns:xlink="http://www.w3.org/1999/xlink"
   xmlns:sodipodi="http://sodipodi.sourceforge.net/DTD/sodipodi-0.dtd"
   xmlns:inkscape="http://www.inkscape.org/namespaces/inkscape"
   version="1.1"
   id="Layer_1"
   x="0px"
   y="0px"
   width="128px"
   height="128px"
   viewBox="0 0 128 128"
   style="enable-background:new 0 0 128 128;"
   xml:space="preserve"
   inkscape:version="0.91 r13725"
   sodipodi:docname="Creative-Tail-People-women-skintone4.svg"><metadata
     id="metadata81"><rdf:RDF><cc:Work
         rdf:about=""><dc:format>image/svg+xml</dc:format><dc:type
           rdf:resource="http://purl.org/dc/dcmitype/StillImage" /><dc:title /></cc:Work></rdf:RDF></metadata><defs
     id="defs79"><defs
       id="defs11"><circle
         r="64"
         cy="64"
         cx="64"
         id="SVGID_1_" /></defs><clipPath
       id="SVGID_2_"><use
         height="100%"
         width="100%"
         y="0"
         x="0"
         id="use15"
         style="overflow:visible"
         xlink:href="#SVGID_1_" /></clipPath><filter
       inkscape:collect="always"
       style="color-interpolation-filters:sRGB"
       id="filter3604"
       x="-0.015266263"
       width="1.0305325"
       y="-0.0098850615"
       height="1.0197701"><feGaussianBlur
         inkscape:collect="always"
         stdDeviation="0.090446245"
         id="feGaussianBlur3606" /></filter></defs><sodipodi:namedview
     pagecolor="#ffffff"
     bordercolor="#666666"
     borderopacity="1"
     objecttolerance="10"
     gridtolerance="10"
     guidetolerance="10"
     inkscape:pageopacity="0"
     inkscape:pageshadow="2"
     inkscape:window-width="1280"
     inkscape:window-height="960"
     id="namedview77"
     showgrid="false"
     inkscape:zoom="4"
     inkscape:cx="35.441142"
     inkscape:cy="51.8585"
     inkscape:window-x="0"
     inkscape:window-y="27"
     inkscape:window-maximized="1"
     inkscape:current-layer="Layer_1" /><path
     style="fill:#c23527;fill-opacity:1"
     d="M 67.554688 93.740234 C 66.315727 93.744474 65.319711 93.714844 64 93.714844 C 59.017 93.714844 54.653625 93.64325 50.578125 93.8125 C 48.540375 93.897125 46.573297 94.04225 44.638672 94.285156 C 42.704047 94.528062 40.800719 94.869156 38.886719 95.347656 C 36.972719 95.826156 34.344 96.512516 31.427734 97.486328 C 28.511469 98.460141 25.307249 99.722316 22.242188 101.35156 C 20.709656 102.16619 19.212439 103.07157 17.802734 104.08008 C 17.046252 104.62127 16.400634 105.2716 15.703125 105.87305 A 64 64 0 0 0 64 128 A 64 64 0 0 0 109.70117 108.73047 C 109.34834 108.30785 109.08786 107.82036 108.70312 107.42188 C 107.52289 106.19947 106.20076 105.08859 104.79102 104.08008 C 103.38127 103.07157 101.88412 102.16619 100.35156 101.35156 C 97.286438 99.722313 94.082234 98.460141 91.166016 97.486328 C 88.249797 96.512516 85.620781 95.826156 83.707031 95.347656 C 80.980031 94.665656 78.271641 94.262969 75.462891 94.027344 C 72.949597 93.816504 70.308287 93.765295 67.554688 93.740234 z "
     id="path3481" /><path
     style="fill:#c23527;fill-opacity:1"
     d="M 81.505859 94.136719 C 82.195221 94.201852 82.901822 94.238015 83.582031 94.326172 C 83.507259 94.316477 83.434234 94.294555 83.359375 94.285156 C 82.755404 94.209325 82.11705 94.194625 81.505859 94.136719 z "
     id="path3485" /><path
     style="fill:#c23527;fill-opacity:1"
     d="M 71.083984 93.765625 C 73.427882 93.771884 75.853762 93.756303 77.998047 93.859375 C 77.801612 93.849988 77.619639 93.820713 77.421875 93.8125 C 75.497457 93.732579 73.171786 93.771037 71.083984 93.765625 z "
     id="path3483" /><path
     style="fill:#b33124;fill-opacity:1"
     d="M 67.554688 93.740234 C 70.308287 93.765295 72.949597 93.816504 75.462891 94.027344 C 78.271641 94.262969 80.980031 94.665656 83.707031 95.347656 C 85.620781 95.826156 88.249797 96.512516 91.166016 97.486328 C 94.082234 98.460141 97.286438 99.722313 100.35156 101.35156 C 101.88412 102.16619 103.38127 103.07157 104.79102 104.08008 C 106.20076 105.08859 107.52289 106.19947 108.70312 107.42188 C 109.08786 107.82036 109.34834 108.30785 109.70117 108.73047 A 64 64 0 0 0 112.32617 105.89844 C 111.61983 105.28766 110.96437 104.62887 110.19727 104.08008 C 108.78756 103.07157 107.29034 102.16619 105.75781 101.35156 C 102.69275 99.722315 99.488531 98.460141 96.572266 97.486328 C 93.656 96.512516 91.027281 95.826156 89.113281 95.347656 C 87.2731 94.887671 85.439692 94.567041 83.582031 94.326172 C 82.901822 94.238015 82.195221 94.201852 81.505859 94.136719 C 80.349263 94.027139 79.193755 93.916513 77.998047 93.859375 C 75.853762 93.756303 73.427882 93.771884 71.083984 93.765625 C 69.92138 93.762611 68.784799 93.736025 67.554688 93.740234 z "
     id="path3467" /><path
     style="fill:#88a6da;fill-opacity:1"
     d="M 64 0 A 64 64 0 0 0 0 64 A 64 64 0 0 0 15.703125 105.87305 C 16.400634 105.2716 17.046252 104.62127 17.802734 104.08008 C 19.212439 103.07157 20.709656 102.16619 22.242188 101.35156 C 25.30725 99.722313 28.511469 98.460141 31.427734 97.486328 C 34.344 96.512516 36.972719 95.826156 38.886719 95.347656 C 40.800719 94.869156 42.704047 94.528062 44.638672 94.285156 C 46.573297 94.04225 48.540375 93.897125 50.578125 93.8125 C 54.653625 93.64325 59.017 93.714844 64 93.714844 C 68.983 93.714844 73.3465 93.64325 77.421875 93.8125 C 79.459563 93.897125 81.424703 94.04225 83.359375 94.285156 C 85.294047 94.528063 87.199031 94.869156 89.113281 95.347656 C 91.027281 95.826156 93.656 96.512516 96.572266 97.486328 C 99.488531 98.460141 102.69275 99.722313 105.75781 101.35156 C 107.29034 102.16619 108.78756 103.07157 110.19727 104.08008 C 110.96437 104.62887 111.61983 105.28766 112.32617 105.89844 A 64 64 0 0 0 128 64 A 64 64 0 0 0 64 0 z "
     id="circle5" /><path
     style="fill:#653b1d;fill-opacity:1"
     d="M 107.256,73.994 C 101.848,84.277 87.889,94.559 64,94.559 c -23.888,0 -37.848,-10.281 -43.255,-20.564 0,0 9.43,-14.972 10.814,-20.564 C 35.677,36.851 46.09,22.583 64,22.583 c 17.92,0 28.324,14.268 32.441,30.846 1.394,5.593 10.815,20.565 10.815,20.565 z"
     id="path19"
     inkscape:connector-curvature="0" /><path
     style="fill:#4b2910;fill-opacity:1"
     d="M 96.441,53.429 C 92.324,36.851 81.92,22.583 64,22.583 c -0.923,0 -1.82,0.047 -2.703,0.121 16.268,1.364 25.834,15.001 29.739,30.726 1.394,5.593 10.813,20.564 10.813,20.564 -5.197,9.885 -18.326,19.74 -40.554,20.49 0.896,0.031 1.778,0.074 2.703,0.074 23.89,0 37.849,-10.281 43.256,-20.564 0.002,0 -9.419,-14.972 -10.813,-20.565 z"
     id="path21"
     inkscape:connector-curvature="0" /><path
     inkscape:connector-curvature="0"
     id="path29"
     d="m 58.595,93.714 c 0.929,0 1.814,-0.003 2.702,-0.006 -1.853,-0.006 -3.623,-0.009 -5.327,0 0.863,0.002 1.723,0.006 2.625,0.006 z"
     style="fill:#b33124" /><path
     style="fill:#b88663;fill-opacity:1"
     d="m 64,102.666 c -2.76,0.045 -9.263,-1.947 -9.263,-1.947 l -2.715,-20.013 23.955,0 -2.646,19.526 c -0.001,0 -6.491,2.388 -9.331,2.434 z"
     id="path31"
     inkscape:connector-curvature="0" /><path
     style="fill:#9b664e;fill-opacity:1;filter:url(#filter3604)"
     d="m 71.923,80.707 -2.646,19.525 c 0,0 -4.381,1.609 -7.521,2.209 0.854,0.144 1.64,0.233 2.243,0.225 2.84,-0.047 9.33,-2.434 9.33,-2.434 l 2.646,-19.525 -4.052,0 z"
     id="path33"
     inkscape:connector-curvature="0" /><circle
     style="fill:#992b1f"
     cx="41.365002"
     cy="64.490997"
     r="2"
     id="circle35" /><circle
     style="fill:#992b1f"
     cx="86.282997"
     cy="64.490997"
     r="2"
     id="circle37" /><ellipse
     style="fill:#b68261;fill-opacity:1"
     cx="64"
     cy="62.182999"
     rx="22.635"
     ry="27.083"
     id="ellipse39" /><path
     style="fill:#7d513c;fill-opacity:1"
     d="m 64,35.1 c -0.685,0 -1.358,0.051 -2.027,0.123 11.55,1.228 20.608,12.822 20.608,26.96 0,14.138 -9.06,25.732 -20.608,26.959 0.669,0.071 1.343,0.123 2.027,0.123 12.501,0 22.635,-12.125 22.635,-27.083 C 86.635,47.226 76.501,35.1 64,35.1 Z"
     id="path41"
     inkscape:connector-curvature="0" /><path
     style="fill:#653b1d;fill-opacity:1"
     d="m 78.525,38.985 c 0,13.176 -37.16,1.521 -37.16,25.506 0,0 -2.196,-35.641 22.635,-35.641 10.814,0 14.525,10.135 14.525,10.135 z"
     id="path43"
     inkscape:connector-curvature="0" /><path
     style="fill:#f5f5f5"
     d="m 74.663,89.716 c 0,4.976 -4.772,11.712 -10.663,11.712 -5.889,0 -10.663,-6.736 -10.663,-11.712 -2.845,1.128 -12.695,3.943 -14.45,5.632 1.417,6.305 14.198,17.566 17.936,17.678 0.192,-3.49 2.185,-8.051 4.005,-8.896 1.148,0 2.228,0.226 3.173,0.226 0.944,0 2.024,-0.226 3.173,-0.226 1.82,0.845 3.813,5.405 4.006,8.896 3.736,-0.111 16.518,-11.373 17.936,-17.678 C 87.357,93.659 77.51,90.845 74.663,89.716 Z"
     id="path45"
     inkscape:connector-curvature="0" /><path
     style="fill:#cccccc"
     d="m 63.459,104.33 c -0.113,-0.08 -0.227,-0.146 -0.341,-0.199 -0.392,0 -0.771,0.029 -1.146,0.063 0.519,0.048 1.016,0.103 1.487,0.136 z"
     id="path47"
     inkscape:connector-curvature="0" /><path
     style="fill:#e6e6e6"
     d="m 63.459,101.409 c -5.751,-1.255 -10.122,-7.304 -10.122,-11.693 -0.834,0.331 -2.274,0.81 -3.933,1.357 0.744,4.76 7.692,10.495 14.055,10.336 z"
     id="path49"
     inkscape:connector-curvature="0" /><path
     style="fill:#e6e6e6"
     d="m 57.138,104.926 c -1.474,0.829 -3.551,3.27 -4.149,6.396 1.594,1.031 2.965,1.679 3.834,1.705 0.181,-3.273 2.284,-7.688 4.005,-8.896 -0.183,0.012 -1.964,-0.177 -3.69,0.795 z"
     id="path51"
     inkscape:connector-curvature="0" /><path
     style="fill:#e6e6e6"
     d="m 74.663,89.716 c 0,0.439 -0.052,0.896 -0.122,1.357 3.998,1.325 9.277,3.079 10.518,4.274 -1.086,4.836 -8.852,12.573 -14.1,15.973 0.109,0.582 0.189,1.158 0.221,1.707 3.735,-0.112 16.516,-11.375 17.934,-17.68 C 87.357,93.659 77.51,90.845 74.663,89.716 Z"
     id="path53"
     inkscape:connector-curvature="0" /><circle
     style="fill:#242424"
     cx="64"
     cy="120.122"
     r="2.7030001"
     id="circle55" /><g
     id="g63"><g
       id="g65"><ellipse
         id="ellipse67"
         ry="3"
         rx="4"
         cy="59.583"
         cx="53"
         style="fill:#f5f5f5" /><circle
         id="circle69"
         r="2"
         cy="59.583"
         cx="53"
         style="fill:#734822" /></g><g
       id="g71"><ellipse
         id="ellipse73"
         ry="3"
         rx="4"
         cy="59.583"
         cx="73"
         style="fill:#f5f5f5" /><circle
         id="circle75"
         r="2"
         cy="59.583"
         cx="73"
         style="fill:#734822" /></g></g></svg>