<?xml version="1.0" encoding="UTF-8" standalone="no"?>
<svg xmlns="http://www.w3.org/2000/svg" version="1.1" viewBox="0 0 256 256" width="256" height="256">
<path d="m91.756 22.158c-39.45 0-71.786 32.336-71.786 71.786s32.336 71.792 71.786 71.792c15.959 0 30.751-5.2982 42.714-14.213l12.875 12.875a16.572 16.572 0 0 0 4.8058 12.616l51.974 51.974a16.572 16.572 0 0 0 23.431 0l3.6191-3.6194a16.572 16.572 0 0 0 0 -23.436l-51.974-51.969a16.572 16.572 0 0 0 -12.621 -4.8108l-13.706-13.706c6.7586-10.937 10.674-23.787 10.674-37.503 0-39.45-32.342-71.786-71.792-71.786zm0 33.14c21.541 0 38.652 17.106 38.652 38.646 0 21.541-17.111 38.652-38.652 38.652s-38.646-17.111-38.646-38.652 17.106-38.646 38.646-38.646z" fill="#72a7cf"/>
</svg>
